/* XPM */
static char * haskell_20_xpm[] = {
"19 8 4 1",
"  c None",
". c #5f5286",
", c #453b61",
"_ c #8e508a",
"  ,,, ...          ",
"   ,,, ... ________",
"    ,,, ... _______",
"     ,,, ...       ",
"    ,,, ..... _____",
"   ,,, ... ... ____",
"  ,,, ...   ...    ",
" ,,, ...     ...   "};
